<?xml version="1.0" encoding="utf-8"?>
<!-- Generator: Adobe Illustrator 26.0.3, SVG Export Plug-In . SVG Version: 6.00 Build 0)  -->
<svg version="1.1" id="Capa_1" xmlns="http://www.w3.org/2000/svg" xmlns:xlink="http://www.w3.org/1999/xlink" x="0px" y="0px"
	 viewBox="0 0 195 195" style="enable-background:new 0 0 195 195;" xml:space="preserve">
<style type="text/css">
	.st0{fill:#0066CC;}
	.st1{fill:#FFFFFF;}
</style>
<circle class="st0" cx="97.5" cy="97.5" r="97.5"/>
<path class="st1" d="M148.7,34.1l-8.4,9.5l1.2,1l3-3.4l2.2,1.9c1.8,1.6,4.2,1.4,5.8-0.4c1.6-1.8,1.4-4.2-0.3-5.7L148.7,34.1z
	 M148.9,36.2l1.9,1.7c1.4,1.2,1.5,2.6,0.4,3.9c-1.1,1.3-2.6,1.3-3.9,0.1l-1.9-1.7L148.9,36.2z"/>
<path class="st1" d="M161.1,46.3c-2.3-2.8-5.6-3-8.8-0.4c-3.1,2.5-3.7,5.9-1.4,8.7c2.3,2.8,5.6,3,8.8,0.4
	C162.8,52.4,163.4,49.1,161.1,46.3z M160,47.2c1.6,2,1.1,4.5-1.3,6.5c-2.4,2-5,1.9-6.6-0.1c-1.6-2-1.1-4.5,1.3-6.5
	C155.8,45.1,158.4,45.2,160,47.2z"/>
<path class="st1" d="M160.8,59.3l1.5,2.6l-3,4.8l0.9,1.6l3.1-5.1c1.2,1.1,2.9,1.3,4.4,0.4c2-1.1,2.5-3.3,1.3-5.4l-2.3-4.1l-11,6.2
	l0.8,1.4L160.8,59.3z M166.2,56.3l1.5,2.6c0.8,1.4,0.5,2.7-0.8,3.5c-1.4,0.8-2.6,0.4-3.4-1l-1.5-2.6L166.2,56.3z"/>
<path class="st1" d="M162.2,73.7l10.5-4l1.4,3.7l1.3-0.5l-3.4-8.9l-1.3,0.5l1.4,3.7l-10.5,4L162.2,73.7z"/>
<path class="st1" d="M164.3,80.3l5.4-1.2l1.3,5.5l1.4-0.3l-1.3-5.5l4.2-1l1.4,6l1.4-0.3l-1.7-7.5L164,78.8L164.3,80.3z"/>
<path class="st1" d="M179.2,92c-0.2-3.6-2.9-5.7-6.9-5.4c-4,0.3-6.4,2.7-6.2,6.3c0.2,3.6,2.9,5.7,6.9,5.4S179.4,95.6,179.2,92z
	 M177.7,92.1c0.2,2.6-1.7,4.3-4.8,4.5c-3.1,0.2-5.2-1.3-5.4-3.9c-0.2-2.6,1.7-4.3,4.8-4.5C175.5,88,177.6,89.5,177.7,92.1z"/>
<path class="st1" d="M167.2,108.5l0.6-6.1l11.2,1.1l0.2-1.6l-12.6-1.2l-0.7,7.7L167.2,108.5z"/>
<path class="st1" d="M165.1,111.6l12.4,2.5l0.3-1.6l-12.4-2.5L165.1,111.6z"/>
<path class="st1" d="M175.3,123.3c1.1-3.4-0.5-6.3-4.3-7.6c-3.8-1.3-6.9,0-8.1,3.4c-1.1,3.4,0.5,6.3,4.3,7.6
	C171,128.1,174.1,126.7,175.3,123.3z M173.9,122.9c-0.8,2.5-3.2,3.4-6.2,2.4c-3-1-4.3-3.2-3.5-5.6c0.8-2.5,3.2-3.4,6.2-2.4
	C173.4,118.2,174.7,120.4,173.9,122.9z"/>
</svg>
